<?xml version="1.0" encoding="UTF-8" standalone="no"?>

<!-- Made by Mathew Ray Gordon <https://github.com/mgord9518> in Inkscape -->
<!--             There is no copyright; put on your clothes               -->

<svg
   xmlns:dc="http://purl.org/dc/elements/1.1/"
   xmlns:cc="http://creativecommons.org/ns#"
   xmlns:rdf="http://www.w3.org/1999/02/22-rdf-syntax-ns#"
   xmlns:svg="http://www.w3.org/2000/svg"
   xmlns="http://www.w3.org/2000/svg"
   width="16"
   height="16"
   viewBox="0 0 4.2333332 4.2333335"
   version="1.1"
   id="svg8">
  <defs
     id="defs2" />
  <metadata
     id="metadata5">
    <rdf:RDF>
      <cc:Work
         rdf:about="">
        <dc:format>image/svg+xml</dc:format>
        <dc:type
           rdf:resource="http://purl.org/dc/dcmitype/StillImage" />
        <dc:title></dc:title>
      </cc:Work>
    </rdf:RDF>
  </metadata>
  <path
     id="path1087"
     style="fill:#4e4e4e;fill-opacity:1;stroke:#6d6d6d;stroke-width:0.132292;stroke-linecap:round;stroke-linejoin:round;stroke-miterlimit:4;stroke-dasharray:none;stroke-opacity:1"
     d="M 3.8261314,3.3070026 3.5659408,2.9437417 3.7280886,2.5545038 4.1671864,2.4824388 4.1671865,1.7500513 3.7285075,1.6767293 3.5663597,1.286652 3.8252937,0.9254865 3.3074262,0.4076198 2.9458407,0.6661338 2.557021,0.5052431 2.4832792,0.066146 1.7513097,0.0665651 1.678825,0.505243 1.2883295,0.666134 0.92674423,0.4076196 l -0.5178676,0.5178668 0.2589338,0.3611656 -0.1604718,0.3900759 -0.4407739,0.073742 -4.189e-4,0.7319683 0.4416117,0.072066 0.1604717,0.3892381 L 0.40803873,3.3070025 0.92590623,3.824869 1.2887481,3.5642597 1.679244,3.7259884 1.751309,4.1659238 2.4832788,4.1671866 2.5566018,3.7259944 2.9454213,3.5642658 3.3078448,3.8244561 Z M 2.556602,2.5352304 a 0.60675691,0.60675504 30.816929 0 1 -0.01048,0.01048 0.60675691,0.60675504 30.816929 0 1 -0.8580846,0 0.60675691,0.60675504 30.816929 0 1 0,-0.8580834 0.60675691,0.60675504 30.816929 0 1 0.8580847,-1e-7 0.60675691,0.60675504 30.816929 0 1 0.01048,0.8476087 z" />
</svg>
